<svg xmlns="http://www.w3.org/2000/svg">
  <symbol viewBox="0 0 19 21" id="icon-airplane">
    <path d="M17.5347 0.1803C16.7301 0.360728 15.9218 0.542002 15.6212 1.03873L13.2941 5.41228L0.79919 8.21442L0.292949 9.61184L9.85436 10.4647L8.23212 14.2509L4.60602 15.0641L3.69562 16.5521L6.31158 16.8201L6.60988 18.0371C6.74352 18.4685 7.21259 18.7565 7.61297 18.6667L8.82168 18.3956L10.2228 20.6492L11.1332 19.1611L10.2383 15.5101L12.8637 12.3536L17.8731 20.6468L18.8832 19.5656L15.8005 6.9887L18.6314 2.93144C18.9358 2.43387 18.7373 1.6238 18.5378 0.809937C18.439 0.406806 17.9351 0.0905095 17.5347 0.1803Z"/>
  </symbol>

  <symbol viewBox="0 0 8 11" id="icon-arrow">
    <path d="M3.64645 10.3536C3.84171 10.5488 4.15829 10.5488 4.35355 10.3536L7.53553 7.17157C7.7308 6.97631 7.7308 6.65973 7.53553 6.46447C7.34027 6.2692 7.02369 6.2692 6.82843 6.46447L4 9.29289L1.17157 6.46447C0.976311 6.2692 0.659728 6.2692 0.464466 6.46447C0.269204 6.65973 0.269204 6.97631 0.464466 7.17157L3.64645 10.3536ZM3.5 0L3.5 10H4.5L4.5 0L3.5 0Z"/>
  </symbol>

  <symbol viewBox="0 0 35 30" id="icon-arrow-back">
    <g>
      <path d="M23.8478 1.59631C23.6758 1.42261 23.4715 1.2848 23.2465 1.19077C23.0216 1.09674 22.7805 1.04834 22.537 1.04834C22.2934 1.04834 22.0523 1.09674 21.8274 1.19077C21.6024 1.2848 21.3981 1.42261 21.2262 1.59631L8.918 13.9962C8.78069 14.1342 8.67176 14.2982 8.59743 14.4787C8.52311 14.6592 8.48485 14.8527 8.48485 15.0481C8.48485 15.2436 8.52311 15.4371 8.59743 15.6176C8.67176 15.7981 8.78069 15.9621 8.918 16.1001L21.2262 28.5C21.9519 29.2311 23.122 29.2311 23.8478 28.5C24.5735 27.7688 23.9723 27.0011 23.2465 26.2699L16.7639 19.7699L12.197 15L23.8636 3C23.8636 3 24.5735 2.31255 23.8478 1.59631Z"/>
    </g>
  </symbol>

  <symbol viewBox="0 0 35 31" id="icon-arrow-next">
    <g>
      <path d="M9.96741 29.1127C10.1394 29.2922 10.3437 29.4346 10.5686 29.5318C10.7936 29.6289 11.0347 29.679 11.2782 29.679C11.5217 29.679 11.7629 29.6289 11.9878 29.5318C12.2127 29.4346 12.417 29.2922 12.589 29.1127L24.8972 16.2995C25.0345 16.1569 25.1434 15.9874 25.2177 15.8009C25.2921 15.6144 25.3303 15.4144 25.3303 15.2125C25.3303 15.0106 25.2921 14.8106 25.2177 14.6241C25.1434 14.4375 25.0345 14.2681 24.8972 14.1255L12.589 1.31227C11.8633 0.556738 10.6932 0.556738 9.96741 1.31227C9.24166 2.0678 10.4106 3.37782 11.1364 4.13335L21.7424 15.2125L10.5686 26.8667C9.85768 27.6068 9.24166 28.3726 9.96741 29.1127Z"/>
    </g>
  </symbol>

  <symbol viewBox="0 0 37 26" id="icon-email">
    <path fill-rule="evenodd" clip-rule="evenodd" d="M32.2786 20.9327L23.6178 13L32.2786 5.06731L31.0976 3.80529L18.5 15.3438L5.9024 3.80529L4.72137 5.06731L13.3822 13L4.72137 20.9327L5.9024 22.1947L14.6617 14.1719L18.5 17.6875L22.3383 14.1719L31.0976 22.1947L32.2786 20.9327ZM3.15193 0.5C1.5339 0.5 0.222229 1.89768 0.222229 3.61572V22.3843C0.222229 24.105 1.52326 25.5 3.15193 25.5H33.8481C35.4661 25.5 36.7778 24.1023 36.7778 22.3843V3.61572C36.7778 1.89496 35.4768 0.5 33.8481 0.5H3.15193Z"/>
  </symbol>

  <symbol viewBox="0 0 23 15" id="icon-filter">
    <rect x="11" width="12" height="3"/>
    <rect x="11" y="12" width="12" height="3"/>
    <rect y="6" width="12" height="3"/>
    <rect x="6" width="3" height="3"/>
    <rect x="6" y="12" width="3" height="3"/>
    <rect x="14" y="6" width="3" height="3"/>
    <rect width="4" height="3"/>
    <rect y="12" width="4" height="3"/>
    <rect x="19" y="6" width="4" height="3"/>
  </symbol>

  <symbol viewBox="0 0 27 34" id="icon-html">
    <path d="M13.6426 0.0157537L13.5 0L0 1.40733V26.0129L13.5 34L27 26.0129V1.40733L13.6426 0.0157537ZM25.2344 25.0151L13.5 31.9573L1.76561 25.0151V14.9293L13.4507 21.8451L13.4701 23.0984L5.45351 18.3548L5.44295 19.5801L13.4894 24.3885L13.5088 25.675L5.46408 20.9174L5.45351 22.1427L13.5 26.9511L21.6239 22.1182V20.8929V16.909L25.2432 14.7595L25.2344 25.0151ZM25.2344 13.4519L22.0147 15.3319L20.5325 16.2071L13.4666 12.0201L13.456 13.2454L19.4957 16.818L19.4429 16.8495L19.3126 16.9247L18.4536 17.4166L13.4666 14.4689L13.456 15.6942L17.3921 18.0222L16.4591 18.6314L16.438 18.6436L13.4666 16.902L13.456 18.1273L15.4029 19.2615L13.4155 20.4483L1.7973 13.5762L13.4349 6.61831L25.2344 13.4519ZM25.2344 12.2266L13.4401 5.31075L1.76561 12.2196V2.9897L13.5 1.76442L25.2344 2.9897V12.2266Z"/>
  </symbol>

  <symbol viewBox="0 0 20 19">
    <path fill-rule="evenodd" clip-rule="evenodd" d="M10 7.12436L11.1175 4.77557C11.395 4.19396 11.8762 3.35764 12.5575 2.68149C13.2275 2.01585 14.03 1.5629 15 1.5629C17.095 1.5629 18.75 3.30381 18.75 5.39658C18.75 6.9865 18.0575 8.10903 16.415 9.82106C15.9937 10.2596 15.5138 10.7335 14.9825 11.2561C13.5975 12.6215 11.875 14.3204 10 16.5917C8.125 14.3204 6.4025 12.6215 5.0175 11.2561C4.48625 10.7335 4.005 10.2583 3.585 9.82106C1.9425 8.10903 1.25 6.9865 1.25 5.39658C1.25 3.30381 2.905 1.5629 5 1.5629C5.97 1.5629 6.7725 2.01585 7.4425 2.68149C8.12375 3.35764 8.605 4.19396 8.8825 4.77557L10 7.12436ZM10.49 18.0109C10.4298 18.0858 10.3548 18.146 10.2701 18.1873C10.1855 18.2286 10.0933 18.25 10 18.25C9.90668 18.25 9.81449 18.2286 9.72986 18.1873C9.64523 18.146 9.57019 18.0858 9.51 18.0109C7.50875 15.5138 5.6975 13.7283 4.20625 12.2591C1.625 9.7134 0 8.11297 0 5.39658C0 2.55414 2.2375 0.25 5 0.25C7 0.25 8.39875 1.62855 9.255 2.88631C9.58 3.36552 9.8275 3.82635 10 4.18871C10.2162 3.73519 10.4653 3.29978 10.745 2.88631C11.6012 1.62723 13 0.25 15 0.25C17.7625 0.25 20 2.55414 20 5.39658C20 8.11297 18.375 9.7134 15.7938 12.2591C14.3025 13.7296 12.4913 15.5151 10.49 18.0096V18.0109Z"/>
  </symbol>

  <symbol viewBox="0 0 20 18" id="icon-like-active">
    <path d="M5 0.25C7.7625 0.25 10 2.44375 10 5.15C10 2.44375 12.2375 0.25 15 0.25C17.7625 0.25 20 2.44375 20 5.15C20 9.22875 15.9575 10.6675 10.49 17.16C10.4298 17.2313 10.3548 17.2886 10.2701 17.3279C10.1855 17.3672 10.0933 17.3876 10 17.3876C9.90668 17.3876 9.81449 17.3672 9.72986 17.3279C9.64523 17.2886 9.57019 17.2313 9.51 17.16C4.0425 10.6675 0 9.22875 0 5.15C0 2.44375 2.2375 0.25 5 0.25Z"/>
  </symbol>

  <symbol viewBox="0 0 20 19" id="icon-like">
    <path fill-rule="evenodd" clip-rule="evenodd" d="M10 7.12436L11.1175 4.77557C11.395 4.19396 11.8762 3.35764 12.5575 2.68149C13.2275 2.01585 14.03 1.5629 15 1.5629C17.095 1.5629 18.75 3.30381 18.75 5.39658C18.75 6.9865 18.0575 8.10903 16.415 9.82106C15.9937 10.2596 15.5138 10.7335 14.9825 11.2561C13.5975 12.6215 11.875 14.3204 10 16.5917C8.125 14.3204 6.4025 12.6215 5.0175 11.2561C4.48625 10.7335 4.005 10.2583 3.585 9.82106C1.9425 8.10903 1.25 6.9865 1.25 5.39658C1.25 3.30381 2.905 1.5629 5 1.5629C5.97 1.5629 6.7725 2.01585 7.4425 2.68149C8.12375 3.35764 8.605 4.19396 8.8825 4.77557L10 7.12436ZM10.49 18.0109C10.4298 18.0858 10.3548 18.146 10.2701 18.1873C10.1855 18.2286 10.0933 18.25 10 18.25C9.90668 18.25 9.81449 18.2286 9.72986 18.1873C9.64523 18.146 9.57019 18.0858 9.51 18.0109C7.50875 15.5138 5.6975 13.7283 4.20625 12.2591C1.625 9.7134 0 8.11297 0 5.39658C0 2.55414 2.2375 0.25 5 0.25C7 0.25 8.39875 1.62855 9.255 2.88631C9.58 3.36552 9.8275 3.82635 10 4.18871C10.2162 3.73519 10.4653 3.29978 10.745 2.88631C11.6012 1.62723 13 0.25 15 0.25C17.7625 0.25 20 2.55414 20 5.39658C20 8.11297 18.375 9.7134 15.7938 12.2591C14.3025 13.7296 12.4913 15.5151 10.49 18.0096V18.0109Z"/>
  </symbol>


  <symbol viewBox="0 0 32 16" id="icon-arrow-bend">
    <path fill-rule="evenodd" clip-rule="evenodd" d="M4 16H28C30.2091 16 32 14.2091 32 12V7C32 4.79086 30.2091 3 28 3H4V5H28C29.1046 5 30 5.89543 30 7V12C30 13.1046 29.1046 14 28 14H4V16Z"/>
    <path d="M0 4L9 0.535898V7.4641L0 4Z"/>
  </symbol>

  <symbol viewBox="0 0 24 24" id="icon-bicycle">
    <path d="M18.1875 21C17.3346 21 16.5008 20.7471 15.7916 20.2732C15.0824 19.7994 14.5297 19.1258 14.2033 18.3378C13.8769 17.5498 13.7915 16.6827 13.9579 15.8462C14.1243 15.0096 14.535 14.2412 15.1381 13.6381C15.7412 13.035 16.5096 12.6243 17.3462 12.4579C18.1827 12.2915 19.0498 12.3769 19.8378 12.7033C20.6258 13.0297 21.2994 13.5824 21.7732 14.2916C22.2471 15.0008 22.5 15.8346 22.5 16.6875C22.4988 17.8309 22.044 18.927 21.2355 19.7355C20.427 20.544 19.3309 20.9988 18.1875 21ZM18.1875 13.875C17.6312 13.875 17.0875 14.04 16.625 14.349C16.1624 14.658 15.802 15.0973 15.5891 15.6112C15.3762 16.1251 15.3205 16.6906 15.429 17.2362C15.5376 17.7818 15.8054 18.2829 16.1988 18.6762C16.5921 19.0696 17.0932 19.3374 17.6388 19.446C18.1844 19.5545 18.7499 19.4988 19.2638 19.2859C19.7777 19.073 20.217 18.7126 20.526 18.25C20.8351 17.7875 21 17.2438 21 16.6875C20.9991 15.9418 20.7025 15.227 20.1753 14.6997C19.648 14.1725 18.9332 13.8759 18.1875 13.875Z"/>
    <path d="M5.8125 21C4.95957 21 4.12579 20.7471 3.41661 20.2732C2.70742 19.7994 2.15467 19.1258 1.82827 18.3378C1.50187 17.5498 1.41647 16.6827 1.58287 15.8462C1.74926 15.0096 2.15999 14.2412 2.7631 13.6381C3.36622 13.035 4.13463 12.6243 4.97117 12.4579C5.80772 12.2915 6.67482 12.3769 7.46282 12.7033C8.25083 13.0297 8.92435 13.5824 9.39822 14.2916C9.87208 15.0008 10.125 15.8346 10.125 16.6875C10.1238 17.8309 9.66901 18.927 8.86053 19.7355C8.05205 20.544 6.95587 20.9988 5.8125 21ZM5.8125 13.875C5.25624 13.875 4.71247 14.04 4.24996 14.349C3.78745 14.658 3.42696 15.0973 3.21409 15.6112C3.00122 16.1251 2.94552 16.6906 3.05404 17.2362C3.16256 17.7818 3.43043 18.2829 3.82376 18.6762C4.2171 19.0696 4.71824 19.3374 5.26381 19.446C5.80938 19.5545 6.37488 19.4988 6.8888 19.2859C7.40272 19.073 7.84197 18.7126 8.15101 18.25C8.46005 17.7875 8.625 17.2438 8.625 16.6875C8.62413 15.9418 8.32754 15.227 7.80028 14.6997C7.27302 14.1725 6.55816 13.8759 5.8125 13.875Z"/>
    <path d="M15 6.00005C15.1976 6.00073 15.3933 5.96225 15.5759 5.88681C15.7585 5.81138 15.9244 5.7005 16.0638 5.56058C16.2033 5.42065 16.3137 5.25447 16.3886 5.07163C16.4634 4.88879 16.5013 4.69293 16.5 4.49536C16.5022 4.29878 16.4651 4.10374 16.3911 3.92164C16.317 3.73954 16.2074 3.57403 16.0686 3.4348C15.9298 3.29558 15.7646 3.18542 15.5827 3.11077C15.4009 3.03612 15.2059 2.99848 15.0094 3.00005C14.8124 2.99943 14.6172 3.03762 14.435 3.11243C14.2528 3.18725 14.0871 3.29722 13.9473 3.43607C13.8076 3.57493 13.6966 3.73994 13.6207 3.92169C13.5447 4.10344 13.5053 4.29838 13.5047 4.49536C13.5041 4.69234 13.5422 4.88752 13.6171 5.06974C13.6919 5.25197 13.8018 5.41767 13.9407 5.55739C14.0796 5.69712 14.2446 5.80812 14.4263 5.88407C14.6081 5.96002 14.803 5.99943 15 6.00005Z"/>
    <path d="M17.2289 9.00028H15.1777C15.144 9.00028 15.111 8.99124 15.082 8.97408C15.0531 8.95693 15.0293 8.9323 15.0131 8.90278L13.5253 6.17606C13.4205 5.97342 13.2694 5.79832 13.0843 5.66492C12.8993 5.53152 12.6854 5.44357 12.46 5.4082C12.2346 5.37282 12.004 5.39102 11.787 5.4613C11.5699 5.53159 11.3725 5.652 11.2106 5.81278L7.93594 9.11278C7.66083 9.39358 7.50467 9.7697 7.5 10.1628C7.5 10.9784 8.09063 11.269 8.36719 11.4331C9.70313 12.2028 10.6439 12.7657 11.16 13.0784C11.1874 13.0951 11.2101 13.1186 11.2259 13.1466C11.2416 13.1746 11.2499 13.2061 11.25 13.2382V16.4782C11.25 16.8818 11.5603 17.2282 11.9639 17.2484C12.0652 17.2533 12.1665 17.2376 12.2616 17.2022C12.3567 17.1668 12.4436 17.1125 12.517 17.0426C12.5905 16.9726 12.6491 16.8885 12.6891 16.7953C12.7291 16.7021 12.7499 16.6017 12.75 16.5003V12.469C12.7501 12.35 12.7218 12.2326 12.6675 12.1266C12.6132 12.0207 12.5345 11.9292 12.4378 11.8597L10.7034 10.6123C10.6817 10.5967 10.6635 10.5767 10.6501 10.5535C10.6367 10.5303 10.6285 10.5045 10.6259 10.4779C10.6233 10.4512 10.6265 10.4243 10.6352 10.399C10.6439 10.3737 10.6579 10.3505 10.6762 10.3311L12.645 8.23153C12.6652 8.20993 12.6902 8.1934 12.718 8.18331C12.7458 8.17322 12.7756 8.16984 12.8049 8.17345C12.8342 8.17706 12.8623 8.18756 12.8868 8.20409C12.9113 8.22062 12.9316 8.24271 12.9459 8.26856L13.9688 10.1145C14.0338 10.2315 14.1289 10.329 14.2443 10.3968C14.3597 10.4647 14.4911 10.5004 14.625 10.5003H17.25C17.3516 10.5004 17.4522 10.4799 17.5456 10.4399C17.639 10.4 17.7234 10.3415 17.7935 10.268C17.8636 10.1945 17.9181 10.1075 17.9536 10.0123C17.9891 9.91709 18.0049 9.81567 18 9.71418C17.9803 9.31059 17.6325 9.00028 17.2289 9.00028Z"/>
  </symbol>

  <symbol viewBox="0 0 18 20" id="icon-bus">
    <g clip-path="url(#clip0)">
      <path d="M4.50098 13.5714C4.50098 13.1771 4.35456 12.8404 4.06171 12.5614C3.76886 12.2824 3.41549 12.1429 3.0016 12.1429C2.58771 12.1429 2.23435 12.2824 1.9415 12.5614C1.64865 12.8404 1.50223 13.1771 1.50223 13.5714C1.50223 13.9658 1.64865 14.3025 1.9415 14.5815C2.23435 14.8605 2.58771 15 3.0016 15C3.41549 15 3.76886 14.8605 4.06171 14.5815C4.35456 14.3025 4.50098 13.9658 4.50098 13.5714ZM16.496 13.5714C16.496 13.1771 16.3496 12.8404 16.0567 12.5614C15.7639 12.2824 15.4105 12.1429 14.9966 12.1429C14.5827 12.1429 14.2293 12.2824 13.9365 12.5614C13.6437 12.8404 13.4972 13.1771 13.4972 13.5714C13.4972 13.9658 13.6437 14.3025 13.9365 14.5815C14.2293 14.8605 14.5827 15 14.9966 15C15.4105 15 15.7639 14.8605 16.0567 14.5815C16.3496 14.3025 16.496 13.9658 16.496 13.5714ZM15.9571 9.15179L15.1137 4.86607C15.0747 4.69494 14.9868 4.55543 14.8502 4.44754C14.7135 4.33966 14.5554 4.28571 14.3758 4.28571H3.62244C3.44283 4.28571 3.28469 4.33966 3.14803 4.44754C3.01137 4.55543 2.92351 4.69494 2.88447 4.86607L2.04107 9.15179C2.00202 9.375 2.05669 9.57217 2.20506 9.7433C2.35344 9.91443 2.54476 10 2.77904 10H15.2192C15.4534 10 15.6448 9.91443 15.7931 9.7433C15.9415 9.57217 15.9962 9.375 15.9571 9.15179ZM13.3098 2.32143C13.3098 2.17262 13.2551 2.04613 13.1458 1.94196C13.0365 1.8378 12.9037 1.78571 12.7475 1.78571H5.25067C5.09448 1.78571 4.96172 1.8378 4.8524 1.94196C4.74307 2.04613 4.6884 2.17262 4.6884 2.32143C4.6884 2.47024 4.74307 2.59673 4.8524 2.70089C4.96172 2.80506 5.09448 2.85714 5.25067 2.85714H12.7475C12.9037 2.85714 13.0365 2.80506 13.1458 2.70089C13.2551 2.59673 13.3098 2.47024 13.3098 2.32143ZM17.9954 10.4129V17.1429H16.496V18.5714C16.496 18.9658 16.3496 19.3025 16.0567 19.5815C15.7639 19.8605 15.4105 20 14.9966 20C14.5827 20 14.2293 19.8605 13.9365 19.5815C13.6437 19.3025 13.4972 18.9658 13.4972 18.5714V17.1429H4.50098V18.5714C4.50098 18.9658 4.35456 19.3025 4.06171 19.5815C3.76886 19.8605 3.41549 20 3.0016 20C2.58771 20 2.23435 19.8605 1.9415 19.5815C1.64865 19.3025 1.50223 18.9658 1.50223 18.5714V17.1429H0.00285339V10.4129C0.00285339 9.57961 0.100469 8.75 0.2957 7.92411L1.50223 2.85714C1.57251 2.27679 1.95321 1.76711 2.64433 1.32812C3.33545 0.889137 4.23351 0.558036 5.33852 0.334821C6.44353 0.111607 7.66372 0 8.99911 0C10.3345 0 11.5547 0.111607 12.6597 0.334821C13.7647 0.558036 14.6628 0.889137 15.3539 1.32812C16.045 1.76711 16.4257 2.27679 16.496 2.85714L17.7259 7.92411C17.9056 8.68304 17.9954 9.51265 17.9954 10.4129Z"/>
    </g>
    <defs>
      <clipPath id="clip0">
        <rect width="18" height="20"/>
      </clipPath>
    </defs>
  </symbol>

  <symbol viewBox="0 0 26 26" id="icon-businessman">
    <path d="M22.1 21.97V18.72C22.1 17.81 21.97 16.9 21.45 15.99C20.93 15.08 20.28 14.3 19.37 13.78C18.46 13.13 16.51 13 15.6 13L13.52 15.21L14.3 16.9V20.8L13 22.23L11.7 20.8V16.9L12.61 15.21L10.4 13C9.36 13 7.41 13.13 6.5 13.78C5.59 14.3 5.07 15.08 4.55 15.99C4.03 16.9 3.9 17.68 3.9 18.72V21.97C3.9 21.97 7.28 23.4 13 23.4C18.72 23.4 22.1 21.97 22.1 21.97Z"/>
    <path d="M13 2.72998C10.53 2.72998 9.1 5.06998 9.49 7.66998C9.88 10.27 11.18 12.09 13 12.09C14.82 12.09 16.12 10.27 16.51 7.66998C16.9 4.93998 15.47 2.72998 13 2.72998Z"/>
  </symbol>

  <symbol viewBox="0 0 18 18" id="icon-call">
    <path d="M8.97418 7.42388C8.97418 7.61288 9.12781 7.76138 9.31556 7.76138C9.70474 7.76138 10.0188 8.07526 10.0188 8.45663C10.0188 8.64225 10.1724 8.79413 10.3602 8.79413C10.5479 8.79413 10.7016 8.64225 10.7016 8.45663C10.7016 7.70064 10.0802 7.08638 9.31556 7.08638C9.12781 7.08638 8.97418 7.23826 8.97418 7.42388ZM14.5318 8.79413C14.723 8.79413 14.8732 8.64225 14.8732 8.45663C14.8732 5.42589 12.3811 2.96214 9.31556 2.96214C9.12781 2.96214 8.97418 3.114 8.97418 3.29964C8.97418 3.48526 9.12781 3.63714 9.31556 3.63714C12.0056 3.63714 14.1905 5.80051 14.1905 8.45663C14.1905 8.64225 14.3441 8.79413 14.5318 8.79413Z"/>
    <path d="M12.1046 8.45663C12.1046 8.64225 12.2582 8.79413 12.446 8.79413C12.6338 8.79413 12.7874 8.64225 12.7874 8.45663C12.7874 6.56326 11.2307 5.02426 9.31554 5.02426C9.12779 5.02426 8.97416 5.17614 8.97416 5.36176C8.97416 5.55076 9.12779 5.69926 9.31554 5.69926C10.8552 5.69926 12.1046 6.93788 12.1046 8.45663ZM9.31554 0.900002C9.12779 0.900002 8.97416 1.05188 8.97416 1.2375C8.97416 1.42314 9.12779 1.575 9.31554 1.575C13.1561 1.575 16.2797 4.66314 16.2797 8.45663C16.2797 8.64225 16.4299 8.79413 16.6211 8.79413C16.8088 8.79413 16.9624 8.64225 16.9624 8.45663C16.9624 4.28852 13.5316 0.900002 9.31554 0.900002ZM12.6508 12.0139L12.2036 12.2535C11.4492 12.6619 10.8621 13.7813 9.93104 12.9375L7.5 10.5L5.39993 8.45663C4.34484 7.1235 5.52624 6.80625 5.9393 6.05701L6.18168 5.61827C6.45478 5.11875 6.55377 4.55851 6.47185 3.99825C6.39333 3.43801 6.1373 2.92838 5.72764 2.52338C5.22924 2.03064 4.56696 1.76064 3.86031 1.76064C3.15365 1.76064 2.48796 2.03064 1.98953 2.52338L1.81545 2.69888C0.893721 3.61014 0.787894 5.1795 1.51503 7.1235C2.20119 8.97975 3.58379 10.9913 5.39993 12.7868C8.16851 15.5239 11.2512 17.1 13.4633 17.1C14.3372 17.1 15.078 16.8536 15.6037 16.3339L15.7813 16.1584C16.2763 15.669 16.5528 15.0143 16.5562 14.3089C16.5528 13.6204 16.2694 12.9454 15.7813 12.4628C14.9585 11.6494 13.6715 11.4671 12.6508 12.0139Z"/>
  </symbol>

  <symbol viewBox="0 0 18 17" id="icon-check-mark">
    <path d="M7.38679 14.1809L4 10.5V10V9C4 9.04093 4 8.95907 4 9C4 8.78516 4.00007 8.5 4.00007 8.5V7.5L7.37736 10.7561C7.49314 10.8776 7.68161 10.8761 7.79738 10.7547L15.0001 3V5.07271V6C15.0001 6.5 15.0001 6.5 15.0001 6.5L8.80839 13.1208L8.80974 13.1222L7.80681 14.1795C7.69103 14.3009 7.50256 14.3009 7.38679 14.1809Z"/>
  </symbol>

  <symbol viewBox="0 0 24 22" id="icon-close">
    <path d="M21 2.75L3 19.25" stroke="white" stroke-width="1.7" stroke-linecap="round" stroke-linejoin="round"/>
    <path d="M3 2.75L21 19.25" stroke="white" stroke-width="1.7" stroke-linecap="round" stroke-linejoin="round"/>
  </symbol>

  <symbol viewBox="0 0 14 28" id="icon-facebook">
    <path d="M9.53 27.75H2.71V14.85H0V8.47H2.63C2.43 5.58 2.93 3.47 4.15 2.03C4.73171 1.39087 5.44042 0.8802 6.23079 0.530647C7.02116 0.181094 7.87578 0.000357734 8.74 0L13.52 0V6.15H9.76C9.53848 6.90214 9.4538 7.68794 9.51 8.47H13.51V14.85H9.51L9.53 27.75ZM4.22 26.25H8V13.35H12V10H8V9.24C8 7.24 8 5.45 9 4.78L9.19 4.65H12V1.5H8.78C8.12565 1.49154 7.47682 1.62071 6.87559 1.87911C6.27436 2.13752 5.73416 2.5194 5.29 3C4.29 4.23 3.88 6.29 4.19 9.14L4.29 9.97H1.5V13.35H4.22V26.25Z"/>
  </symbol>

  <symbol viewBox="0 0 24 24" id="icon-instagram">
    <path d="M17.2802 2.40094C18.4252 2.40347 19.5225 2.85943 20.3321 3.66904C21.1417 4.47865 21.5977 5.57598 21.6002 6.72094V17.2809C21.5977 18.4259 21.1417 19.5232 20.3321 20.3328C19.5225 21.1424 18.4252 21.5984 17.2802 21.6009H6.7202C5.57691 21.5959 4.48204 21.1388 3.6745 20.3295C2.86696 19.5201 2.41233 18.4242 2.4098 17.2809V6.72094C2.41233 5.57764 2.86696 4.48175 3.6745 3.67241C4.48204 2.86308 5.57691 2.406 6.7202 2.40094H17.2802ZM17.2802 0.960938H6.7202C5.19256 0.960938 3.72748 1.56779 2.64727 2.648C1.56706 3.72821 0.960205 5.19329 0.960205 6.72094L0.960205 17.2809C0.960205 18.8086 1.56706 20.2737 2.64727 21.3539C3.72748 22.4341 5.19256 23.0409 6.7202 23.0409H17.2802C18.8078 23.0409 20.2729 22.4341 21.3531 21.3539C22.4333 20.2737 23.0402 18.8086 23.0402 17.2809V6.72094C23.0402 5.19329 22.4333 3.72821 21.3531 2.648C20.2729 1.56779 18.8078 0.960938 17.2802 0.960938V0.960938Z"/>
    <path d="M12.0093 7.75642C12.8504 7.75642 13.6727 8.00584 14.372 8.47314C15.0714 8.94045 15.6165 9.60464 15.9384 10.3817C16.2603 11.1588 16.3445 12.0139 16.1804 12.8389C16.0163 13.6639 15.6112 14.4216 15.0165 15.0164C14.4217 15.6112 13.6639 16.0162 12.839 16.1803C12.014 16.3444 11.1589 16.2602 10.3818 15.9383C9.60472 15.6164 8.94052 15.0713 8.47321 14.3719C8.00591 13.6726 7.75649 12.8503 7.75649 12.0092C7.75522 11.4504 7.86436 10.8968 8.07764 10.3802C8.29091 9.8637 8.60412 9.39437 8.99928 8.99921C9.39444 8.60405 9.86377 8.29084 10.3803 8.07756C10.8969 7.86429 11.4504 7.75515 12.0093 7.75642ZM12.0093 6.31641C10.883 6.31451 9.78137 6.64678 8.84393 7.27115C7.90649 7.89553 7.17533 8.78396 6.74299 9.82402C6.31064 10.8641 6.19653 12.009 6.4151 13.1139C6.63368 14.2189 7.17511 15.2341 7.97088 16.0312C8.76664 16.8283 9.78099 17.3715 10.8855 17.5919C11.9901 17.8124 13.1352 17.7002 14.176 17.2696C15.2168 16.839 16.1065 16.1093 16.7324 15.173C17.3584 14.2366 17.6925 13.1356 17.6925 12.0092C17.6938 11.2621 17.5477 10.522 17.2626 9.8314C16.9776 9.14077 16.5592 8.51313 16.0313 7.98438C15.5035 7.45563 14.8765 7.03615 14.1864 6.74994C13.4962 6.46373 12.7564 6.31641 12.0093 6.31641Z"/>
    <path d="M17.9043 7.41264C18.6148 7.41264 19.1907 6.8367 19.1907 6.12624C19.1907 5.41578 18.6148 4.83984 17.9043 4.83984C17.1939 4.83984 16.6179 5.41578 16.6179 6.12624C16.6179 6.8367 17.1939 7.41264 17.9043 7.41264Z"/>
  </symbol>

  <symbol viewBox="0 0 16 14" id="icon-mail">
    <path d="M1.25913 2.60026L7.25913 6.36066C7.46073 6.48666 7.72153 6.54639 7.98393 6.54639C8.24633 6.54639 8.50713 6.48666 8.70873 6.36066L14.7087 2.60026C15.0999 2.35479 15.4695 1.39999 14.7519 1.39999H1.21673C0.499128 1.39999 0.868728 2.35479 1.25913 2.60026ZM14.8903 4.65639L8.70873 8.41493C8.43673 8.58106 8.24633 8.60066 7.98393 8.60066C7.72153 8.60066 7.53113 8.58106 7.25913 8.41493C6.98713 8.24879 1.55273 4.92519 1.10873 4.65546C0.796728 4.46506 0.799928 4.68813 0.799928 4.85986V11.6667C0.799928 12.0587 1.25273 12.6 1.59993 12.6H14.3999C14.7471 12.6 15.1999 12.0587 15.1999 11.6667V4.86079C15.1999 4.68906 15.2031 4.46599 14.8903 4.65639Z"/>
  </symbol>

  <symbol viewBox="0 0 21 21" id="icon-plus">
    <g>
      <line y1="10" x2="20" y2="10" stroke="black" stroke-width="2"/>
      <line x1="10" y1="20" x2="10" stroke="black" stroke-width="2"/>
    </g>
  </symbol>

  <symbol viewBox="0 0 22 24" id="icon-run">
    <path d="M15.4545 6C16.4587 6 17.2727 5.10457 17.2727 4C17.2727 2.89543 16.4587 2 15.4545 2C14.4504 2 13.6364 2.89543 13.6364 4C13.6364 5.10457 14.4504 6 15.4545 6Z"/>
    <path d="M14.3428 10.969C14.5514 11.311 14.8508 11.5742 15.2001 11.7227C15.5495 11.8712 15.9319 11.8978 16.2955 11.799L19.31 10.97L18.8709 9.02997L15.8564 9.85897L14.6027 7.79197C14.3349 7.35053 13.9192 7.04354 13.4464 6.93797L9.95002 6.16797C9.55888 6.08162 9.15277 6.13933 8.79441 6.33217C8.43606 6.52502 8.14539 6.84229 7.9673 7.23497L6.46002 10.551L8.08639 11.446L9.59366 8.12897L11.3818 8.52297L6.7582 17H2.72729V19H6.7582C7.39275 19 7.99002 18.628 8.3173 18.029L10.0609 14.833L14.76 15.867L16.4109 21.316L18.1346 20.683L16.4846 15.235C16.3827 14.9005 16.2026 14.6014 15.9622 14.3679C15.7219 14.1345 15.4298 13.9748 15.1155 13.905L12.3527 13.298L13.9637 10.344L14.3428 10.969Z"/>
  </symbol>

  <symbol viewBox="0 0 36 34" id="icon-telephone">
    <path fill-rule="evenodd" clip-rule="evenodd" d="M18 2.17236C12.4071 2.17236 6.80078 3.1177 4.76656 5.00191C3.07881 6.56509 2.5162 9.32664 2.32655 11.0751C2.32655 11.0751 2.30042 11.2479 2.30042 11.3222C2.30042 12.0079 2.88902 12.5578 3.60866 12.5578C3.69369 12.5578 6.84016 12.3168 8.73714 12.1686C8.78279 12.1623 8.8288 12.1562 8.87445 12.1439C9.58099 12.1255 10.1502 11.5817 10.1502 10.9083L10.1566 8.47406C10.1566 7.72035 10.8044 7.11481 11.6025 7.11481H24.3974C25.1957 7.11481 25.8436 7.72028 25.8436 8.47406L25.85 10.9083C25.85 11.5817 26.4192 12.1255 27.1257 12.1439C27.171 12.1563 27.217 12.1623 27.2632 12.1686C29.1603 12.3167 32.3067 12.5578 32.3915 12.5578C33.1108 12.5578 33.6998 12.0079 33.6998 11.3222C33.6998 11.2479 33.6737 11.0751 33.6737 11.0751C33.4839 9.32664 32.922 6.56516 31.2341 5.00191C29.1993 3.1177 23.5929 2.17236 18 2.17236ZM18 18.2355C16.5543 18.2355 15.3834 19.3413 15.3834 20.7067C15.3834 22.0721 16.5543 23.1778 18 23.1778C19.4457 23.1778 20.6166 22.0721 20.6166 20.7067C20.6166 19.3413 19.4457 18.2355 18 18.2355ZM16.0376 12.6751V11.1306C16.0376 10.2781 15.3048 9.58613 14.4023 9.58613C13.4997 9.58613 12.7669 10.2782 12.7669 11.1306V12.6751L3.94202 21.5779C3.3339 22.1402 2.95439 22.9245 2.95439 23.7897V26.2671C2.95439 27.6325 4.1254 28.7383 5.57102 28.7383H6.22521V30.2829C6.22521 31.1354 6.95802 31.8273 7.86062 31.8273C8.76321 31.8273 9.49595 31.1354 9.49595 30.2829V28.7383H26.5041V30.2829C26.5041 31.1354 27.2366 31.8273 28.1396 31.8273C29.0422 31.8273 29.7748 31.1354 29.7748 30.2829V28.7383H30.4289C31.8746 28.7383 33.0455 27.6325 33.0455 26.2671V23.7897C33.0455 22.9245 32.6661 22.1401 32.0579 21.5779L23.2333 12.6751V11.1306C23.2333 10.2781 22.5005 9.58613 21.5979 9.58613C20.6953 9.58613 19.9626 10.2782 19.9626 11.1306V12.6751H16.0376ZM18 15.7643C20.8914 15.7643 23.2333 17.976 23.2333 20.7067C23.2333 23.4375 20.8915 25.6494 18 25.6494C15.1086 25.6494 12.7668 23.4375 12.7668 20.7067C12.7668 17.976 15.1086 15.7643 18 15.7643Z"/>
  </symbol>

  <symbol viewBox="0 0 14 14" id="icon-user">
    <path d="M4.375 3.92991C4.375 5.45333 5.55275 6.69306 7 6.69306C8.44725 6.69306 9.625 5.45333 9.625 3.92991C9.625 2.40648 8.44725 1.16675 7 1.16675C5.55275 1.16675 4.375 2.40648 4.375 3.92991ZM11.6667 12.8334H12.25V12.2194C12.25 9.84982 10.4177 7.92113 8.16667 7.92113H5.83333C3.58167 7.92113 1.75 9.84982 1.75 12.2194V12.8334H11.6667Z"/>
  </symbol>

  <symbol viewBox="0 0 31 16" id="icon-vkontakte">
    <path d="M23.9461 15.7775C23.2083 15.761 22.4891 15.5431 21.8661 15.1475C21.2157 14.7079 20.6184 14.1945 20.0861 13.6175C19.6461 13.1775 18.9161 12.4375 18.6361 12.4375C18.3561 12.4375 18.1561 13.3575 18.1661 14.0075C18.1703 14.4562 18.0021 14.8894 17.6961 15.2175C17.3481 15.5018 16.9234 15.6758 16.4761 15.7175H14.5561C11.7965 15.6568 9.15414 14.59 7.12606 12.7175C3.44606 9.34753 0.286063 2.90753 0.156063 2.62753C0.0320633 2.39361 -0.0198655 2.12821 0.00683068 1.86481C0.0335268 1.6014 0.137651 1.35181 0.306063 1.14753C0.687199 0.829675 1.16985 0.659328 1.66606 0.667532H5.74606H5.86606C6.20364 0.716784 6.52722 0.835995 6.81606 1.01753C7.08788 1.1998 7.30552 1.45198 7.44606 1.74753C7.87724 2.6706 8.37175 3.56273 8.92606 4.41753C10.2361 6.41753 10.8161 6.87753 11.0261 6.97753C11.2597 6.03979 11.324 5.06788 11.2161 4.10753C11.2511 3.67014 11.179 3.2308 11.0061 2.82753C10.7865 2.65191 10.5169 2.55038 10.2361 2.53753L9.50606 1.84753C9.36606 1.18753 10.0961 0.617532 10.6061 0.397532C11.6238 0.0786297 12.6916 -0.0501836 13.7561 0.017532H14.4661C15.1881 -0.00127074 15.9099 0.0658674 16.6161 0.217532C18.3161 0.577532 18.2561 1.94753 18.1861 3.52753C18.1861 3.98753 18.1361 4.52753 18.1361 5.14753C18.1361 5.29753 18.1361 5.45753 18.1361 5.62753C18.0967 6.06289 18.1271 6.50174 18.2261 6.92753C19.0586 6.23108 19.7597 5.39116 20.2961 4.44753C20.875 3.55527 21.3832 2.61908 21.8161 1.64753C21.9479 1.34025 22.1739 1.08272 22.4614 0.912012C22.7489 0.741299 23.0832 0.666204 23.4161 0.697532H27.6961C27.8224 0.685471 27.9497 0.685471 28.0761 0.697532C29.0761 0.697532 29.6661 0.987532 29.9061 1.54753C30.1461 2.10753 30.0761 3.20753 27.5461 6.15753L26.5461 7.28753C26.0616 7.75797 25.6443 8.29301 25.3061 8.87753C25.6848 9.30811 26.1147 9.69093 26.5861 10.0175C27.7353 10.8835 28.7468 11.9186 29.5861 13.0875C29.7829 13.3148 29.9117 13.593 29.9576 13.8901C30.0036 14.1873 29.965 14.4914 29.8461 14.7675C29.6365 15.0734 29.3561 15.3241 29.0288 15.4982C28.7014 15.6723 28.3368 15.7647 27.9661 15.7675L24.1761 15.8175L23.9461 15.7775ZM18.6361 10.9375C19.5361 10.9375 20.3161 11.7275 21.1461 12.5575C21.5944 13.0471 22.0977 13.4833 22.6461 13.8575C23.0607 14.1333 23.5481 14.2795 24.0461 14.2775H24.1461L27.9461 14.2275C28.1335 14.2168 28.317 14.1692 28.4861 14.0875L28.3861 13.9275C27.6291 12.8959 26.7263 11.9797 25.7061 11.2075C24.5161 10.2075 23.9061 9.73753 23.8361 8.96753C23.7661 8.19753 24.3261 7.52753 25.4461 6.25753L26.4461 5.14753C27.2903 4.28639 27.9834 3.28908 28.4961 2.19753C28.2729 2.1843 28.0492 2.1843 27.8261 2.19753H23.4561C23.377 2.17986 23.2951 2.17986 23.2161 2.19753C22.7532 3.25898 22.2012 4.27929 21.5661 5.24753C19.6761 8.06753 18.7861 8.44753 18.1561 8.44753C17.9607 8.44753 17.7684 8.39945 17.5961 8.30753C16.5961 7.73753 16.5961 6.46753 16.6561 5.54753C16.6561 5.39753 16.6561 5.24753 16.6561 5.11753C16.6561 4.46753 16.6561 3.90753 16.7061 3.42753C16.7861 1.74753 16.7061 1.73753 16.3261 1.64753C15.7138 1.52655 15.09 1.4729 14.4661 1.48753H13.7761C13.1411 1.47441 12.5061 1.50784 11.8761 1.58753C11.9715 1.65784 12.0558 1.74212 12.1261 1.83753C12.5385 2.48787 12.7442 3.24794 12.7161 4.01753C12.8461 5.66753 12.7761 7.81753 11.7161 8.33753C11.5284 8.42537 11.3233 8.4698 11.1161 8.46753C10.1861 8.46753 9.26606 7.58753 7.69606 5.20753C7.09358 4.29624 6.5556 3.34392 6.08606 2.35753L6.00606 2.25753C5.90508 2.20606 5.79736 2.16903 5.68606 2.14753H1.68606H1.61606C2.20606 3.36753 5.00606 8.76753 8.13606 11.5975C9.89364 13.2122 12.1708 14.1451 14.5561 14.2275H16.4061C16.5004 14.2074 16.5914 14.1737 16.6761 14.1275C16.6761 14.1275 16.6761 14.1275 16.6761 14.0375C16.6761 13.7675 16.6761 11.4375 18.2561 11.0375C18.3784 10.9894 18.5059 10.9558 18.6361 10.9375Z"/>
  </symbol>

  <symbol viewBox="0 0 10 18" id="icon-page-left">
    <path d="M0 9L9.75 0.339745L9.75 17.6603L0 9Z"/>
  </symbol>

  <symbol viewBox="0 0 10 18" id="icon-page-right">
    <path d="M10 8.89478L0.25 17.555L0.25 0.234521L10 8.89478Z"/>
  </symbol>

  <symbol viewBox="0 0 12 14" id="icon-triangle">
    <path d="M12 7L0 13.0622L0 0.937822L12 7Z"/>
  </symbol>

</svg>
