<svg width="35" height="31" viewBox="0 0 35 31" fill="none" xmlns="http://www.w3.org/2000/svg">
<g opacity="0.5">
<path d="M9.96741 29.1127C10.1394 29.2922 10.3437 29.4346 10.5686 29.5318C10.7936 29.6289 11.0347 29.679 11.2782 29.679C11.5217 29.679 11.7629 29.6289 11.9878 29.5318C12.2127 29.4346 12.417 29.2922 12.589 29.1127L24.8972 16.2995C25.0345 16.1569 25.1434 15.9874 25.2177 15.8009C25.2921 15.6144 25.3303 15.4144 25.3303 15.2125C25.3303 15.0106 25.2921 14.8106 25.2177 14.6241C25.1434 14.4375 25.0345 14.2681 24.8972 14.1255L12.589 1.31227C11.8633 0.556738 10.6932 0.556738 9.96741 1.31227C9.24166 2.0678 10.4106 3.37782 11.1364 4.13335L21.7424 15.2125L10.5686 26.8667C9.85768 27.6068 9.24166 28.3726 9.96741 29.1127Z" fill="black"/>
</g>
</svg>
