<svg width="35" height="30" viewBox="0 0 35 30" fill="none" xmlns="http://www.w3.org/2000/svg">
<g opacity="0.5">
<path d="M23.8478 1.59631C23.6758 1.42261 23.4715 1.2848 23.2465 1.19077C23.0216 1.09674 22.7805 1.04834 22.537 1.04834C22.2934 1.04834 22.0523 1.09674 21.8274 1.19077C21.6024 1.2848 21.3981 1.42261 21.2262 1.59631L8.918 13.9962C8.78069 14.1342 8.67176 14.2982 8.59743 14.4787C8.52311 14.6592 8.48485 14.8527 8.48485 15.0481C8.48485 15.2436 8.52311 15.4371 8.59743 15.6176C8.67176 15.7981 8.78069 15.9621 8.918 16.1001L21.2262 28.5C21.9519 29.2311 23.122 29.2311 23.8478 28.5C24.5735 27.7688 23.9723 27.0011 23.2465 26.2699L16.7639 19.7699L12.197 15L23.8636 3C23.8636 3 24.5735 2.31255 23.8478 1.59631Z" fill="black"/>
</g>
</svg>
