<svg width="19" height="21" viewBox="0 0 19 21" fill="none" xmlns="http://www.w3.org/2000/svg">
<path d="M17.5347 0.1803C16.7301 0.360728 15.9218 0.542002 15.6212 1.03873L13.2941 5.41228L0.79919 8.21442L0.292949 9.61184L9.85436 10.4647L8.23212 14.2509L4.60602 15.0641L3.69562 16.5521L6.31158 16.8201L6.60988 18.0371C6.74352 18.4685 7.21259 18.7565 7.61297 18.6667L8.82168 18.3956L10.2228 20.6492L11.1332 19.1611L10.2383 15.5101L12.8637 12.3536L17.8731 20.6468L18.8832 19.5656L15.8005 6.9887L18.6314 2.93144C18.9358 2.43387 18.7373 1.6238 18.5378 0.809937C18.439 0.406806 17.9351 0.0905095 17.5347 0.1803Z" fill="#1D2E5B"/>
</svg>
